<mxfile host="app.diagrams.net" modified="2024-07-12T22:51:20.272Z" agent="Mozilla/5.0 (Windows NT 10.0; Win64; x64) AppleWebKit/537.36 (KHTML, like Gecko) Chrome/126.0.0.0 Safari/537.36" etag="1CXnuQNr2-5RD1HWiqTf" version="24.6.5" type="github">
  <diagram id="C5RBs43oDa-KdzZeNtuy" name="Page-1">
    <mxGraphModel dx="880" dy="460" grid="1" gridSize="10" guides="1" tooltips="1" connect="1" arrows="1" fold="1" page="1" pageScale="1" pageWidth="827" pageHeight="1169" math="0" shadow="0">
      <root>
        <mxCell id="WIyWlLk6GJQsqaUBKTNV-0" />
        <mxCell id="WIyWlLk6GJQsqaUBKTNV-1" parent="WIyWlLk6GJQsqaUBKTNV-0" />
        <mxCell id="y2UfTumv7CHEHebfJBtu-16" value="Cliente" style="html=1;whiteSpace=wrap;" parent="WIyWlLk6GJQsqaUBKTNV-1" vertex="1">
          <mxGeometry x="130" y="10" width="110" height="50" as="geometry" />
        </mxCell>
        <mxCell id="y2UfTumv7CHEHebfJBtu-17" value="Conta" style="html=1;whiteSpace=wrap;" parent="WIyWlLk6GJQsqaUBKTNV-1" vertex="1">
          <mxGeometry x="130" y="200" width="110" height="50" as="geometry" />
        </mxCell>
        <mxCell id="y2UfTumv7CHEHebfJBtu-18" value="Pessoa" style="html=1;whiteSpace=wrap;" parent="WIyWlLk6GJQsqaUBKTNV-1" vertex="1">
          <mxGeometry x="10" y="10" width="110" height="50" as="geometry" />
        </mxCell>
        <mxCell id="y2UfTumv7CHEHebfJBtu-19" value="Moeda" style="html=1;whiteSpace=wrap;" parent="WIyWlLk6GJQsqaUBKTNV-1" vertex="1">
          <mxGeometry y="200" width="110" height="50" as="geometry" />
        </mxCell>
        <mxCell id="y2UfTumv7CHEHebfJBtu-20" value="Movimentação" style="html=1;whiteSpace=wrap;" parent="WIyWlLk6GJQsqaUBKTNV-1" vertex="1">
          <mxGeometry x="130" y="260" width="110" height="50" as="geometry" />
        </mxCell>
        <mxCell id="y2UfTumv7CHEHebfJBtu-21" value="Gerente" style="html=1;whiteSpace=wrap;" parent="WIyWlLk6GJQsqaUBKTNV-1" vertex="1">
          <mxGeometry x="130" y="60" width="110" height="50" as="geometry" />
        </mxCell>
        <mxCell id="y2UfTumv7CHEHebfJBtu-22" value="Funcionário" style="html=1;whiteSpace=wrap;" parent="WIyWlLk6GJQsqaUBKTNV-1" vertex="1">
          <mxGeometry x="130" y="110" width="110" height="50" as="geometry" />
        </mxCell>
        <mxCell id="y2UfTumv7CHEHebfJBtu-23" value="Financiamento" style="html=1;whiteSpace=wrap;" parent="WIyWlLk6GJQsqaUBKTNV-1" vertex="1">
          <mxGeometry x="414" y="130" width="110" height="50" as="geometry" />
        </mxCell>
        <mxCell id="y2UfTumv7CHEHebfJBtu-24" value="Investimento" style="html=1;whiteSpace=wrap;" parent="WIyWlLk6GJQsqaUBKTNV-1" vertex="1">
          <mxGeometry x="414" y="80" width="110" height="50" as="geometry" />
        </mxCell>
        <mxCell id="y2UfTumv7CHEHebfJBtu-25" value="Serviços financeiros" style="html=1;whiteSpace=wrap;" parent="WIyWlLk6GJQsqaUBKTNV-1" vertex="1">
          <mxGeometry x="414" y="10" width="110" height="50" as="geometry" />
        </mxCell>
        <mxCell id="y2UfTumv7CHEHebfJBtu-26" value="Juros" style="html=1;whiteSpace=wrap;" parent="WIyWlLk6GJQsqaUBKTNV-1" vertex="1">
          <mxGeometry x="270" y="140" width="110" height="50" as="geometry" />
        </mxCell>
        <mxCell id="y2UfTumv7CHEHebfJBtu-27" value="Lucro" style="html=1;whiteSpace=wrap;" parent="WIyWlLk6GJQsqaUBKTNV-1" vertex="1">
          <mxGeometry x="270" y="190" width="110" height="50" as="geometry" />
        </mxCell>
        <mxCell id="y2UfTumv7CHEHebfJBtu-28" value="Depósito" style="html=1;whiteSpace=wrap;" parent="WIyWlLk6GJQsqaUBKTNV-1" vertex="1">
          <mxGeometry x="414" y="280" width="110" height="50" as="geometry" />
        </mxCell>
        <mxCell id="y2UfTumv7CHEHebfJBtu-29" value="Saque" style="html=1;whiteSpace=wrap;" parent="WIyWlLk6GJQsqaUBKTNV-1" vertex="1">
          <mxGeometry x="414" y="230" width="110" height="50" as="geometry" />
        </mxCell>
        <mxCell id="y2UfTumv7CHEHebfJBtu-30" value="Extrato" style="html=1;whiteSpace=wrap;" parent="WIyWlLk6GJQsqaUBKTNV-1" vertex="1">
          <mxGeometry x="414" y="180" width="110" height="50" as="geometry" />
        </mxCell>
        <mxCell id="y2UfTumv7CHEHebfJBtu-31" value="Produtor" style="html=1;whiteSpace=wrap;" parent="WIyWlLk6GJQsqaUBKTNV-1" vertex="1">
          <mxGeometry x="270" y="70" width="110" height="50" as="geometry" />
        </mxCell>
        <mxCell id="y2UfTumv7CHEHebfJBtu-32" value="Consumidor" style="html=1;whiteSpace=wrap;" parent="WIyWlLk6GJQsqaUBKTNV-1" vertex="1">
          <mxGeometry x="270" y="10" width="110" height="50" as="geometry" />
        </mxCell>
      </root>
    </mxGraphModel>
  </diagram>
</mxfile>
